<svg id="visual" viewBox="0 0 960 540" width="960" height="540" xmlns="http://www.w3.org/2000/svg" xmlns:xlink="http://www.w3.org/1999/xlink" version="1.1"><path d="M0 39L32 38C64 37 128 35 192 35.8C256 36.7 320 40.3 384 41.3C448 42.3 512 40.7 576 41.7C640 42.7 704 46.3 768 45.3C832 44.3 896 38.7 928 35.8L960 33L960 0L928 0C896 0 832 0 768 0C704 0 640 0 576 0C512 0 448 0 384 0C320 0 256 0 192 0C128 0 64 0 32 0L0 0Z" fill="#dc3966"></path><path d="M0 114L32 118.5C64 123 128 132 192 133.8C256 135.7 320 130.3 384 131.3C448 132.3 512 139.7 576 145.2C640 150.7 704 154.3 768 152.5C832 150.7 896 143.3 928 139.7L960 136L960 31L928 33.8C896 36.7 832 42.3 768 43.3C704 44.3 640 40.7 576 39.7C512 38.7 448 40.3 384 39.3C320 38.3 256 34.7 192 33.8C128 33 64 35 32 36L0 37Z" fill="#cb266d"></path><path d="M0 255L32 253.2C64 251.3 128 247.7 192 253C256 258.3 320 272.7 384 280.8C448 289 512 291 576 284.7C640 278.3 704 263.7 768 257.3C832 251 896 253 928 254L960 255L960 134L928 137.7C896 141.3 832 148.7 768 150.5C704 152.3 640 148.7 576 143.2C512 137.7 448 130.3 384 129.3C320 128.3 256 133.7 192 131.8C128 130 64 121 32 116.5L0 112Z" fill="#b61673"></path><path d="M0 298L32 299.8C64 301.7 128 305.3 192 311.7C256 318 320 327 384 328.8C448 330.7 512 325.3 576 319C640 312.7 704 305.3 768 304.3C832 303.3 896 308.7 928 311.3L960 314L960 253L928 252C896 251 832 249 768 255.3C704 261.7 640 276.3 576 282.7C512 289 448 287 384 278.8C320 270.7 256 256.3 192 251C128 245.7 64 249.3 32 251.2L0 253Z" fill="#9f0c79"></path><path d="M0 336L32 336C64 336 128 336 192 343.2C256 350.3 320 364.7 384 371C448 377.3 512 375.7 576 371.2C640 366.7 704 359.3 768 357.5C832 355.7 896 359.3 928 361.2L960 363L960 312L928 309.3C896 306.7 832 301.3 768 302.3C704 303.3 640 310.7 576 317C512 323.3 448 328.7 384 326.8C320 325 256 316 192 309.7C128 303.3 64 299.7 32 297.8L0 296Z" fill="#840c7d"></path><path d="M0 471L32 471.8C64 472.7 128 474.3 192 479.7C256 485 320 494 384 490.5C448 487 512 471 576 467.5C640 464 704 473 768 478.3C832 483.7 896 485.3 928 486.2L960 487L960 361L928 359.2C896 357.3 832 353.7 768 355.5C704 357.3 640 364.7 576 369.2C512 373.7 448 375.3 384 369C320 362.7 256 348.3 192 341.2C128 334 64 334 32 334L0 334Z" fill="#661280"></path><path d="M0 541L32 541C64 541 128 541 192 541C256 541 320 541 384 541C448 541 512 541 576 541C640 541 704 541 768 541C832 541 896 541 928 541L960 541L960 485L928 484.2C896 483.3 832 481.7 768 476.3C704 471 640 462 576 465.5C512 469 448 485 384 488.5C320 492 256 483 192 477.7C128 472.3 64 470.7 32 469.8L0 469Z" fill="#401880"></path></svg>