<svg id="visual" viewBox="0 0 960 540" width="960" height="540" xmlns="http://www.w3.org/2000/svg" xmlns:xlink="http://www.w3.org/1999/xlink" version="1.1"><path d="M0 174L8.5 183.8C17 193.7 34 213.3 50.8 213.3C67.7 213.3 84.3 193.7 101.2 177.5C118 161.3 135 148.7 151.8 150.5C168.7 152.3 185.3 168.7 202.2 180.3C219 192 236 199 252.8 188.2C269.7 177.3 286.3 148.7 303.2 139.7C320 130.7 337 141.3 353.8 162.8C370.7 184.3 387.3 216.7 404.2 234.7C421 252.7 438 256.3 454.8 245.7C471.7 235 488.3 210 505.2 184C522 158 539 131 555.8 114.7C572.7 98.3 589.3 92.7 606.2 84.5C623 76.3 640 65.7 656.8 82C673.7 98.3 690.3 141.7 707.2 168.7C724 195.7 741 206.3 757.8 185.5C774.7 164.7 791.3 112.3 808.2 102.5C825 92.7 842 125.3 858.8 151.5C875.7 177.7 892.3 197.3 909.2 189.2C926 181 943 145 951.5 127L960 109L960 0L951.5 0C943 0 926 0 909.2 0C892.3 0 875.7 0 858.8 0C842 0 825 0 808.2 0C791.3 0 774.7 0 757.8 0C741 0 724 0 707.2 0C690.3 0 673.7 0 656.8 0C640 0 623 0 606.2 0C589.3 0 572.7 0 555.8 0C539 0 522 0 505.2 0C488.3 0 471.7 0 454.8 0C438 0 421 0 404.2 0C387.3 0 370.7 0 353.8 0C337 0 320 0 303.2 0C286.3 0 269.7 0 252.8 0C236 0 219 0 202.2 0C185.3 0 168.7 0 151.8 0C135 0 118 0 101.2 0C84.3 0 67.7 0 50.8 0C34 0 17 0 8.5 0L0 0Z" fill="#dc3966"></path><path d="M0 190L8.5 208C17 226 34 262 50.8 271C67.7 280 84.3 262 101.2 242.2C118 222.3 135 200.7 151.8 200.7C168.7 200.7 185.3 222.3 202.2 241.3C219 260.3 236 276.7 252.8 259.5C269.7 242.3 286.3 191.7 303.2 178.2C320 164.7 337 188.3 353.8 216.3C370.7 244.3 387.3 276.7 404.2 291.8C421 307 438 305 454.8 290.5C471.7 276 488.3 249 505.2 224.8C522 200.7 539 179.3 555.8 169.5C572.7 159.7 589.3 161.3 606.2 161.3C623 161.3 640 159.7 656.8 172.3C673.7 185 690.3 212 707.2 226.3C724 240.7 741 242.3 757.8 224.3C774.7 206.3 791.3 168.7 808.2 166C825 163.3 842 195.7 858.8 215.3C875.7 235 892.3 242 909.2 239.3C926 236.7 943 224.3 951.5 218.2L960 212L960 107L951.5 125C943 143 926 179 909.2 187.2C892.3 195.3 875.7 175.7 858.8 149.5C842 123.3 825 90.7 808.2 100.5C791.3 110.3 774.7 162.7 757.8 183.5C741 204.3 724 193.7 707.2 166.7C690.3 139.7 673.7 96.3 656.8 80C640 63.7 623 74.3 606.2 82.5C589.3 90.7 572.7 96.3 555.8 112.7C539 129 522 156 505.2 182C488.3 208 471.7 233 454.8 243.7C438 254.3 421 250.7 404.2 232.7C387.3 214.7 370.7 182.3 353.8 160.8C337 139.3 320 128.7 303.2 137.7C286.3 146.7 269.7 175.3 252.8 186.2C236 197 219 190 202.2 178.3C185.3 166.7 168.7 150.3 151.8 148.5C135 146.7 118 159.3 101.2 175.5C84.3 191.7 67.7 211.3 50.8 211.3C34 211.3 17 191.7 8.5 181.8L0 172Z" fill="#cb266d"></path><path d="M0 287L8.5 306.8C17 326.7 34 366.3 50.8 379C67.7 391.7 84.3 377.3 101.2 360.2C118 343 135 323 151.8 314C168.7 305 185.3 307 202.2 313.3C219 319.7 236 330.3 252.8 341.2C269.7 352 286.3 363 303.2 356.7C320 350.3 337 326.7 353.8 322.2C370.7 317.7 387.3 332.3 404.2 348.7C421 365 438 383 454.8 374.8C471.7 366.7 488.3 332.3 505.2 311.5C522 290.7 539 283.3 555.8 287C572.7 290.7 589.3 305.3 606.2 311.7C623 318 640 316 656.8 324C673.7 332 690.3 350 707.2 343.7C724 337.3 741 306.7 757.8 295.8C774.7 285 791.3 294 808.2 296.8C825 299.7 842 296.3 858.8 297.3C875.7 298.3 892.3 303.7 909.2 302.7C926 301.7 943 294.3 951.5 290.7L960 287L960 210L951.5 216.2C943 222.3 926 234.7 909.2 237.3C892.3 240 875.7 233 858.8 213.3C842 193.7 825 161.3 808.2 164C791.3 166.7 774.7 204.3 757.8 222.3C741 240.3 724 238.7 707.2 224.3C690.3 210 673.7 183 656.8 170.3C640 157.7 623 159.3 606.2 159.3C589.3 159.3 572.7 157.7 555.8 167.5C539 177.3 522 198.7 505.2 222.8C488.3 247 471.7 274 454.8 288.5C438 303 421 305 404.2 289.8C387.3 274.7 370.7 242.3 353.8 214.3C337 186.3 320 162.7 303.2 176.2C286.3 189.7 269.7 240.3 252.8 257.5C236 274.7 219 258.3 202.2 239.3C185.3 220.3 168.7 198.7 151.8 198.7C135 198.7 118 220.3 101.2 240.2C84.3 260 67.7 278 50.8 269C34 260 17 224 8.5 206L0 188Z" fill="#b61673"></path><path d="M0 417L8.5 419.7C17 422.3 34 427.7 50.8 425C67.7 422.3 84.3 411.7 101.2 409.8C118 408 135 415 151.8 417.7C168.7 420.3 185.3 418.7 202.2 415.2C219 411.7 236 406.3 252.8 404.5C269.7 402.7 286.3 404.3 303.2 407.8C320 411.3 337 416.7 353.8 412.2C370.7 407.7 387.3 393.3 404.2 394.3C421 395.3 438 411.7 454.8 419.8C471.7 428 488.3 428 505.2 419.8C522 411.7 539 395.3 555.8 400.7C572.7 406 589.3 433 606.2 434.8C623 436.7 640 413.3 656.8 407C673.7 400.7 690.3 411.3 707.2 415.8C724 420.3 741 418.7 757.8 418.7C774.7 418.7 791.3 420.3 808.2 419.3C825 418.3 842 414.7 858.8 414.7C875.7 414.7 892.3 418.3 909.2 415.7C926 413 943 404 951.5 399.5L960 395L960 285L951.5 288.7C943 292.3 926 299.7 909.2 300.7C892.3 301.7 875.7 296.3 858.8 295.3C842 294.3 825 297.7 808.2 294.8C791.3 292 774.7 283 757.8 293.8C741 304.7 724 335.3 707.2 341.7C690.3 348 673.7 330 656.8 322C640 314 623 316 606.2 309.7C589.3 303.3 572.7 288.7 555.8 285C539 281.3 522 288.7 505.2 309.5C488.3 330.3 471.7 364.7 454.8 372.8C438 381 421 363 404.2 346.7C387.3 330.3 370.7 315.7 353.8 320.2C337 324.7 320 348.3 303.2 354.7C286.3 361 269.7 350 252.8 339.2C236 328.3 219 317.7 202.2 311.3C185.3 305 168.7 303 151.8 312C135 321 118 341 101.2 358.2C84.3 375.3 67.7 389.7 50.8 377C34 364.3 17 324.7 8.5 304.8L0 285Z" fill="#9f0c79"></path><path d="M0 492L8.5 485.8C17 479.7 34 467.3 50.8 465.7C67.7 464 84.3 473 101.2 472C118 471 135 460 151.8 454.5C168.7 449 185.3 449 202.2 450C219 451 236 453 252.8 447.7C269.7 442.3 286.3 429.7 303.2 426.8C320 424 337 431 353.8 436.3C370.7 441.7 387.3 445.3 404.2 450.8C421 456.3 438 463.7 454.8 466.3C471.7 469 488.3 467 505.2 458.8C522 450.7 539 436.3 555.8 442.7C572.7 449 589.3 476 606.2 478.7C623 481.3 640 459.7 656.8 457.8C673.7 456 690.3 474 707.2 477.7C724 481.3 741 470.7 757.8 468C774.7 465.3 791.3 470.7 808.2 472.5C825 474.3 842 472.7 858.8 466.3C875.7 460 892.3 449 909.2 445.3C926 441.7 943 445.3 951.5 447.2L960 449L960 393L951.5 397.5C943 402 926 411 909.2 413.7C892.3 416.3 875.7 412.7 858.8 412.7C842 412.7 825 416.3 808.2 417.3C791.3 418.3 774.7 416.7 757.8 416.7C741 416.7 724 418.3 707.2 413.8C690.3 409.3 673.7 398.7 656.8 405C640 411.3 623 434.7 606.2 432.8C589.3 431 572.7 404 555.8 398.7C539 393.3 522 409.7 505.2 417.8C488.3 426 471.7 426 454.8 417.8C438 409.7 421 393.3 404.2 392.3C387.3 391.3 370.7 405.7 353.8 410.2C337 414.7 320 409.3 303.2 405.8C286.3 402.3 269.7 400.7 252.8 402.5C236 404.3 219 409.7 202.2 413.2C185.3 416.7 168.7 418.3 151.8 415.7C135 413 118 406 101.2 407.8C84.3 409.7 67.7 420.3 50.8 423C34 425.7 17 420.3 8.5 417.7L0 415Z" fill="#840c7d"></path><path d="M0 503L8.5 504.8C17 506.7 34 510.3 50.8 514C67.7 517.7 84.3 521.3 101.2 514.2C118 507 135 489 151.8 480C168.7 471 185.3 471 202.2 476.3C219 481.7 236 492.3 252.8 495C269.7 497.7 286.3 492.3 303.2 489.7C320 487 337 487 353.8 487.8C370.7 488.7 387.3 490.3 404.2 495.7C421 501 438 510 454.8 514.5C471.7 519 488.3 519 505.2 513.7C522 508.3 539 497.7 555.8 499.5C572.7 501.3 589.3 515.7 606.2 519.3C623 523 640 516 656.8 514.2C673.7 512.3 690.3 515.7 707.2 514.7C724 513.7 741 508.3 757.8 504.8C774.7 501.3 791.3 499.7 808.2 503.3C825 507 842 516 858.8 512.3C875.7 508.7 892.3 492.3 909.2 492.3C926 492.3 943 508.7 951.5 516.8L960 525L960 447L951.5 445.2C943 443.3 926 439.7 909.2 443.3C892.3 447 875.7 458 858.8 464.3C842 470.7 825 472.3 808.2 470.5C791.3 468.7 774.7 463.3 757.8 466C741 468.7 724 479.3 707.2 475.7C690.3 472 673.7 454 656.8 455.8C640 457.7 623 479.3 606.2 476.7C589.3 474 572.7 447 555.8 440.7C539 434.3 522 448.7 505.2 456.8C488.3 465 471.7 467 454.8 464.3C438 461.7 421 454.3 404.2 448.8C387.3 443.3 370.7 439.7 353.8 434.3C337 429 320 422 303.2 424.8C286.3 427.7 269.7 440.3 252.8 445.7C236 451 219 449 202.2 448C185.3 447 168.7 447 151.8 452.5C135 458 118 469 101.2 470C84.3 471 67.7 462 50.8 463.7C34 465.3 17 477.7 8.5 483.8L0 490Z" fill="#661280"></path><path d="M0 541L8.5 541C17 541 34 541 50.8 541C67.7 541 84.3 541 101.2 541C118 541 135 541 151.8 541C168.7 541 185.3 541 202.2 541C219 541 236 541 252.8 541C269.7 541 286.3 541 303.2 541C320 541 337 541 353.8 541C370.7 541 387.3 541 404.2 541C421 541 438 541 454.8 541C471.7 541 488.3 541 505.2 541C522 541 539 541 555.8 541C572.7 541 589.3 541 606.2 541C623 541 640 541 656.8 541C673.7 541 690.3 541 707.2 541C724 541 741 541 757.8 541C774.7 541 791.3 541 808.2 541C825 541 842 541 858.8 541C875.7 541 892.3 541 909.2 541C926 541 943 541 951.5 541L960 541L960 523L951.5 514.8C943 506.7 926 490.3 909.2 490.3C892.3 490.3 875.7 506.7 858.8 510.3C842 514 825 505 808.2 501.3C791.3 497.7 774.7 499.3 757.8 502.8C741 506.3 724 511.7 707.2 512.7C690.3 513.7 673.7 510.3 656.8 512.2C640 514 623 521 606.2 517.3C589.3 513.7 572.7 499.3 555.8 497.5C539 495.7 522 506.3 505.2 511.7C488.3 517 471.7 517 454.8 512.5C438 508 421 499 404.2 493.7C387.3 488.3 370.7 486.7 353.8 485.8C337 485 320 485 303.2 487.7C286.3 490.3 269.7 495.7 252.8 493C236 490.3 219 479.7 202.2 474.3C185.3 469 168.7 469 151.8 478C135 487 118 505 101.2 512.2C84.3 519.3 67.7 515.7 50.8 512C34 508.3 17 504.7 8.5 502.8L0 501Z" fill="#401880"></path></svg>